<mxfile host="app.diagrams.net" modified="2021-05-31T03:20:44.991Z" agent="5.0 (Macintosh; Intel Mac OS X 10_15_7) AppleWebKit/537.36 (KHTML, like Gecko) Chrome/91.0.4472.77 Safari/537.36" etag="-3SRknGkP0IyilOFoTYR" version="14.7.3" type="github">
  <diagram id="kgpKYQtTHZ0yAKxKKP6v" name="Page-1">
    <mxGraphModel dx="1126" dy="714" grid="1" gridSize="10" guides="1" tooltips="1" connect="1" arrows="1" fold="1" page="1" pageScale="1" pageWidth="850" pageHeight="1100" math="0" shadow="0">
      <root>
        <mxCell id="0" />
        <mxCell id="1" parent="0" />
        <mxCell id="3nuBFxr9cyL0pnOWT2aG-1" value="网关" style="shape=umlLifeline;perimeter=lifelinePerimeter;container=1;collapsible=0;recursiveResize=0;rounded=0;shadow=0;strokeWidth=1;" parent="1" vertex="1">
          <mxGeometry x="203" y="80" width="100" height="300" as="geometry" />
        </mxCell>
        <mxCell id="uX1jMXB_K_jwAqzEaMTx-18" value="" style="html=1;points=[];perimeter=orthogonalPerimeter;" vertex="1" parent="3nuBFxr9cyL0pnOWT2aG-1">
          <mxGeometry x="57" y="150" width="10" height="80" as="geometry" />
        </mxCell>
        <mxCell id="uX1jMXB_K_jwAqzEaMTx-19" value="基本请求过滤" style="edgeStyle=orthogonalEdgeStyle;html=1;align=left;spacingLeft=2;endArrow=block;rounded=0;entryX=1;entryY=0;" edge="1" target="uX1jMXB_K_jwAqzEaMTx-18" parent="3nuBFxr9cyL0pnOWT2aG-1">
          <mxGeometry relative="1" as="geometry">
            <mxPoint x="55" y="115" as="sourcePoint" />
            <Array as="points">
              <mxPoint x="85" y="115" />
            </Array>
          </mxGeometry>
        </mxCell>
        <mxCell id="3nuBFxr9cyL0pnOWT2aG-5" value="门诊服务" style="shape=umlLifeline;perimeter=lifelinePerimeter;container=1;collapsible=0;recursiveResize=0;rounded=0;shadow=0;strokeWidth=1;" parent="1" vertex="1">
          <mxGeometry x="383" y="80" width="100" height="300" as="geometry" />
        </mxCell>
        <mxCell id="uX1jMXB_K_jwAqzEaMTx-1" value="认证服务" style="shape=umlLifeline;perimeter=lifelinePerimeter;container=1;collapsible=0;recursiveResize=0;rounded=0;shadow=0;strokeWidth=1;" vertex="1" parent="1">
          <mxGeometry x="563" y="80" width="100" height="310" as="geometry" />
        </mxCell>
        <mxCell id="uX1jMXB_K_jwAqzEaMTx-14" value="" style="html=1;points=[];perimeter=orthogonalPerimeter;" vertex="1" parent="1">
          <mxGeometry x="248" y="160" width="10" height="150" as="geometry" />
        </mxCell>
        <mxCell id="uX1jMXB_K_jwAqzEaMTx-15" value="登录" style="html=1;verticalAlign=bottom;startArrow=oval;endArrow=block;startSize=8;" edge="1" target="uX1jMXB_K_jwAqzEaMTx-14" parent="1">
          <mxGeometry relative="1" as="geometry">
            <mxPoint x="120" y="165" as="sourcePoint" />
          </mxGeometry>
        </mxCell>
        <mxCell id="uX1jMXB_K_jwAqzEaMTx-25" value="" style="html=1;points=[];perimeter=orthogonalPerimeter;" vertex="1" parent="1">
          <mxGeometry x="610" y="240" width="10" height="50" as="geometry" />
        </mxCell>
        <mxCell id="uX1jMXB_K_jwAqzEaMTx-26" value="账号密码登录" style="html=1;verticalAlign=bottom;endArrow=block;entryX=0;entryY=0;exitX=1.3;exitY=0.1;exitDx=0;exitDy=0;exitPerimeter=0;" edge="1" target="uX1jMXB_K_jwAqzEaMTx-25" parent="1" source="uX1jMXB_K_jwAqzEaMTx-18">
          <mxGeometry relative="1" as="geometry">
            <mxPoint x="358" y="260" as="sourcePoint" />
          </mxGeometry>
        </mxCell>
        <mxCell id="uX1jMXB_K_jwAqzEaMTx-27" value="返回TOKEN" style="html=1;verticalAlign=bottom;endArrow=open;dashed=1;endSize=8;exitX=0;exitY=0.95;" edge="1" source="uX1jMXB_K_jwAqzEaMTx-25" parent="1">
          <mxGeometry relative="1" as="geometry">
            <mxPoint x="270" y="288" as="targetPoint" />
          </mxGeometry>
        </mxCell>
      </root>
    </mxGraphModel>
  </diagram>
</mxfile>
